<svg viewBox="0 0 1060 622" width="1060" height="622" role="img" aria-label="Discovery engine" class="fig-svg" xmlns="http://www.w3.org/2000/svg"><defs><marker id="m2-acc" viewBox="0 0 10 10" refX="9" refY="5" markerWidth="7" markerHeight="7" orient="auto-start-reverse"><path d="M0,0 L10,5 L0,10 z" fill="#d9a45f"/></marker><marker id="m2-sec" viewBox="0 0 10 10" refX="9" refY="5" markerWidth="7" markerHeight="7" orient="auto-start-reverse"><path d="M0,0 L10,5 L0,10 z" fill="#3a4356"/></marker><marker id="m2-red" viewBox="0 0 10 10" refX="9" refY="5" markerWidth="7" markerHeight="7" orient="auto-start-reverse"><path d="M0,0 L10,5 L0,10 z" fill="#cf5c63"/></marker><marker id="m2-green" viewBox="0 0 10 10" refX="9" refY="5" markerWidth="7" markerHeight="7" orient="auto-start-reverse"><path d="M0,0 L10,5 L0,10 z" fill="#6fae8f"/></marker><marker id="m2-teal" viewBox="0 0 10 10" refX="9" refY="5" markerWidth="7" markerHeight="7" orient="auto-start-reverse"><path d="M0,0 L10,5 L0,10 z" fill="#69a8a3"/></marker></defs><rect width="100%" height="100%" fill="#0b0d11"/><rect x="0" y="0" width="1060" height="52" fill="#171c26"/><line x1="0" y1="52" x2="1060" y2="52" stroke="#3a4356" stroke-width="1"/><text x="20" y="33" font-family="JetBrains Mono, monospace" font-size="14" font-weight="700" fill="#d9a45f">FIG.02</text><text x="112" y="33" font-family="Archivo, sans-serif" font-size="16" font-weight="700" fill="#e7eaf0">Discovery engine</text><text x="1040" y="32" font-family="JetBrains Mono, monospace" font-size="12" font-weight="400" fill="#7b8494" text-anchor="end">redteam.py v1.1.0</text><g transform="translate(0,52)"><rect x="30" y="60" width="145" height="44" rx="22" fill="#12161e" stroke="#aeb6c4" stroke-width="1.25"/><text x="102.5" y="87.0" font-family="Archivo, sans-serif" font-size="14" font-weight="700" fill="#e7eaf0" text-anchor="middle">seed URL</text><rect x="230" y="40" width="250" height="102" rx="4" fill="#12161e" stroke="#262d3a" stroke-width="1.25"/><text x="244" y="64" font-family="Archivo, sans-serif" font-size="14" font-weight="700" fill="#e7eaf0">PASS 1 · BFS crawl</text><text x="244" y="84" font-family="JetBrains Mono, monospace" font-size="12" font-weight="400" fill="#7b8494">robots · sitemap + gzip</text><text x="244" y="102" font-family="JetBrains Mono, monospace" font-size="12" font-weight="400" fill="#7b8494">forms · params · JS URLs</text><rect x="540" y="40" width="240" height="102" rx="4" fill="#12161e" stroke="#262d3a" stroke-width="1.25"/><text x="554" y="64" font-family="Archivo, sans-serif" font-size="14" font-weight="700" fill="#e7eaf0">PASS 2 · JS mining</text><text x="554" y="84" font-family="JetBrains Mono, monospace" font-size="12" font-weight="400" fill="#7b8494">fetch same-origin bundles</text><text x="554" y="102" font-family="JetBrains Mono, monospace" font-size="12" font-weight="400" fill="#7b8494">extract /api routes</text><rect x="830" y="40" width="200" height="82" rx="4" fill="#12161e" stroke="#262d3a" stroke-width="1.25"/><text x="844" y="64" font-family="Archivo, sans-serif" font-size="14" font-weight="700" fill="#e7eaf0">PASS 3</text><text x="844" y="84" font-family="JetBrains Mono, monospace" font-size="12" font-weight="400" fill="#7b8494">probe mined routes</text><polyline points="175,82 230,82" fill="none" stroke="#d9a45f" stroke-width="1.6" marker-end="url(#m2-acc)"/><polyline points="480,90 540,90" fill="none" stroke="#d9a45f" stroke-width="1.6" marker-end="url(#m2-acc)"/><text x="510" y="81" font-family="JetBrains Mono, monospace" font-size="12" fill="#d9a45f" text-anchor="middle" stroke="#0b0d11" stroke-width="4" paint-order="stroke" stroke-linejoin="round">mine</text><polyline points="780,90 830,90" fill="none" stroke="#d9a45f" stroke-width="1.6" marker-end="url(#m2-acc)"/><path d="M830,220 A100,10 0 0 1 1030,220 L1030,300 A100,10 0 0 1 830,300 Z" fill="#12161e" stroke="#3a4356" stroke-width="1.25"/><ellipse cx="930" cy="220" rx="100" ry="10" fill="#171c26" stroke="#3a4356" stroke-width="1.25"/><text x="930.0" y="246" font-family="Archivo, sans-serif" font-size="14" font-weight="700" fill="#e7eaf0" text-anchor="middle">stores</text><text x="930.0" y="268" font-family="JetBrains Mono, monospace" font-size="12" font-weight="400" fill="#7b8494" text-anchor="middle">pages · URLs</text><text x="930.0" y="286" font-family="JetBrains Mono, monospace" font-size="12" font-weight="400" fill="#7b8494" text-anchor="middle">params · forms · endpoints</text><polyline points="930,123 930,210" fill="none" stroke="#d9a45f" stroke-width="1.6" marker-end="url(#m2-acc)"/><text x="930" y="157" font-family="JetBrains Mono, monospace" font-size="12" fill="#d9a45f" text-anchor="middle" stroke="#0b0d11" stroke-width="4" paint-order="stroke" stroke-linejoin="round">results</text><polyline points="300,143 300,245" fill="none" stroke="#69a8a3" stroke-width="1.25" stroke-dasharray="2 6" marker-end="url(#m2-teal)"/><text x="300" y="195" font-family="JetBrains Mono, monospace" font-size="12" fill="#aeb6c4" text-anchor="middle" stroke="#0b0d11" stroke-width="4" paint-order="stroke" stroke-linejoin="round">optional: Wayback</text><rect x="230" y="245" width="250" height="82" rx="4" fill="#12161e" stroke="#69a8a3" stroke-width="1.25"/><text x="244" y="269" font-family="Archivo, sans-serif" font-size="14" font-weight="700" fill="#e7eaf0">Wayback CDX</text><text x="244" y="289" font-family="JetBrains Mono, monospace" font-size="12" font-weight="400" fill="#7b8494">scope filter</text><rect x="540" y="245" width="240" height="82" rx="4" fill="#12161e" stroke="#262d3a" stroke-width="1.25"/><text x="554" y="269" font-family="Archivo, sans-serif" font-size="14" font-weight="700" fill="#e7eaf0">re-crawl</text><text x="554" y="289" font-family="JetBrains Mono, monospace" font-size="12" font-weight="400" fill="#7b8494">historical URLs</text><polyline points="480,295 540,295" fill="none" stroke="#3a4356" stroke-width="1.25" marker-end="url(#m2-sec)"/><polyline points="780,286 830,286" fill="none" stroke="#3a4356" stroke-width="1.25" marker-end="url(#m2-sec)"/><polyline points="230,100 185,100 185,455 230,455" fill="none" stroke="#69a8a3" stroke-width="1.25" stroke-dasharray="2 6" marker-end="url(#m2-teal)"/><text x="185" y="300" font-family="JetBrains Mono, monospace" font-size="12" fill="#aeb6c4" text-anchor="middle" stroke="#0b0d11" stroke-width="4" paint-order="stroke" stroke-linejoin="round">optional: CT logs</text><rect x="230" y="405" width="270" height="82" rx="4" fill="#12161e" stroke="#69a8a3" stroke-width="1.25"/><text x="244" y="429" font-family="Archivo, sans-serif" font-size="14" font-weight="700" fill="#e7eaf0">crt.sh then Cert Spotter</text><text x="244" y="449" font-family="JetBrains Mono, monospace" font-size="12" font-weight="400" fill="#7b8494">+ DNS resolve</text><rect x="560" y="435" width="240" height="82" rx="4" fill="#12161e" stroke="#d9a45f" stroke-width="1.25" stroke-dasharray="5 4"/><text x="574" y="459" font-family="Archivo, sans-serif" font-size="14" font-weight="700" fill="#e7eaf0">dangling subdomain</text><text x="574" y="479" font-family="JetBrains Mono, monospace" font-size="12" font-weight="400" fill="#7b8494">report only</text><polyline points="500,455 560,455" fill="none" stroke="#3a4356" stroke-width="1.25" marker-end="url(#m2-sec)"/><line x1="800" y1="475" x2="860" y2="500" stroke="#3a4356" stroke-width="1"/><circle cx="800" cy="475" r="2.5" fill="#d9a45f"/><text x="867" y="504" font-family="JetBrains Mono, monospace" font-size="12" font-weight="400" fill="#aeb6c4">takeover candidate</text><line x1="0" y1="560" x2="1060" y2="560" stroke="#262d3a" stroke-width="1"/><line x1="0" y1="560" x2="0" y2="567" stroke="#262d3a" stroke-width="1"/><line x1="16" y1="560" x2="16" y2="563.5" stroke="#262d3a" stroke-width="1"/><line x1="32" y1="560" x2="32" y2="563.5" stroke="#262d3a" stroke-width="1"/><line x1="48" y1="560" x2="48" y2="563.5" stroke="#262d3a" stroke-width="1"/><line x1="64" y1="560" x2="64" y2="567" stroke="#262d3a" stroke-width="1"/><line x1="80" y1="560" x2="80" y2="563.5" stroke="#262d3a" stroke-width="1"/><line x1="96" y1="560" x2="96" y2="563.5" stroke="#262d3a" stroke-width="1"/><line x1="112" y1="560" x2="112" y2="563.5" stroke="#262d3a" stroke-width="1"/><line x1="128" y1="560" x2="128" y2="567" stroke="#262d3a" stroke-width="1"/><line x1="144" y1="560" x2="144" y2="563.5" stroke="#262d3a" stroke-width="1"/><line x1="160" y1="560" x2="160" y2="563.5" stroke="#262d3a" stroke-width="1"/><line x1="176" y1="560" x2="176" y2="563.5" stroke="#262d3a" stroke-width="1"/><line x1="192" y1="560" x2="192" y2="567" stroke="#262d3a" stroke-width="1"/><line x1="208" y1="560" x2="208" y2="563.5" stroke="#262d3a" stroke-width="1"/><line x1="224" y1="560" x2="224" y2="563.5" stroke="#262d3a" stroke-width="1"/><line x1="240" y1="560" x2="240" y2="563.5" stroke="#262d3a" stroke-width="1"/><line x1="256" y1="560" x2="256" y2="567" stroke="#262d3a" stroke-width="1"/><line x1="272" y1="560" x2="272" y2="563.5" stroke="#262d3a" stroke-width="1"/><line x1="288" y1="560" x2="288" y2="563.5" stroke="#262d3a" stroke-width="1"/><line x1="304" y1="560" x2="304" y2="563.5" stroke="#262d3a" stroke-width="1"/><line x1="320" y1="560" x2="320" y2="567" stroke="#262d3a" stroke-width="1"/><line x1="336" y1="560" x2="336" y2="563.5" stroke="#262d3a" stroke-width="1"/><line x1="352" y1="560" x2="352" y2="563.5" stroke="#262d3a" stroke-width="1"/><line x1="368" y1="560" x2="368" y2="563.5" stroke="#262d3a" stroke-width="1"/><line x1="384" y1="560" x2="384" y2="567" stroke="#262d3a" stroke-width="1"/><line x1="400" y1="560" x2="400" y2="563.5" stroke="#262d3a" stroke-width="1"/><line x1="416" y1="560" x2="416" y2="563.5" stroke="#262d3a" stroke-width="1"/><line x1="432" y1="560" x2="432" y2="563.5" stroke="#262d3a" stroke-width="1"/><line x1="448" y1="560" x2="448" y2="567" stroke="#262d3a" stroke-width="1"/><line x1="464" y1="560" x2="464" y2="563.5" stroke="#262d3a" stroke-width="1"/><line x1="480" y1="560" x2="480" y2="563.5" stroke="#262d3a" stroke-width="1"/><line x1="496" y1="560" x2="496" y2="563.5" stroke="#262d3a" stroke-width="1"/><line x1="512" y1="560" x2="512" y2="567" stroke="#262d3a" stroke-width="1"/><line x1="528" y1="560" x2="528" y2="563.5" stroke="#262d3a" stroke-width="1"/><line x1="544" y1="560" x2="544" y2="563.5" stroke="#262d3a" stroke-width="1"/><line x1="560" y1="560" x2="560" y2="563.5" stroke="#262d3a" stroke-width="1"/><line x1="576" y1="560" x2="576" y2="567" stroke="#262d3a" stroke-width="1"/><line x1="592" y1="560" x2="592" y2="563.5" stroke="#262d3a" stroke-width="1"/><line x1="608" y1="560" x2="608" y2="563.5" stroke="#262d3a" stroke-width="1"/><line x1="624" y1="560" x2="624" y2="563.5" stroke="#262d3a" stroke-width="1"/><line x1="640" y1="560" x2="640" y2="567" stroke="#262d3a" stroke-width="1"/><line x1="656" y1="560" x2="656" y2="563.5" stroke="#262d3a" stroke-width="1"/><line x1="672" y1="560" x2="672" y2="563.5" stroke="#262d3a" stroke-width="1"/><line x1="688" y1="560" x2="688" y2="563.5" stroke="#262d3a" stroke-width="1"/><line x1="704" y1="560" x2="704" y2="567" stroke="#262d3a" stroke-width="1"/><line x1="720" y1="560" x2="720" y2="563.5" stroke="#262d3a" stroke-width="1"/><line x1="736" y1="560" x2="736" y2="563.5" stroke="#262d3a" stroke-width="1"/><line x1="752" y1="560" x2="752" y2="563.5" stroke="#262d3a" stroke-width="1"/><line x1="768" y1="560" x2="768" y2="567" stroke="#262d3a" stroke-width="1"/><line x1="784" y1="560" x2="784" y2="563.5" stroke="#262d3a" stroke-width="1"/><line x1="800" y1="560" x2="800" y2="563.5" stroke="#262d3a" stroke-width="1"/><line x1="816" y1="560" x2="816" y2="563.5" stroke="#262d3a" stroke-width="1"/><line x1="832" y1="560" x2="832" y2="567" stroke="#262d3a" stroke-width="1"/><line x1="848" y1="560" x2="848" y2="563.5" stroke="#262d3a" stroke-width="1"/><line x1="864" y1="560" x2="864" y2="563.5" stroke="#262d3a" stroke-width="1"/><line x1="880" y1="560" x2="880" y2="563.5" stroke="#262d3a" stroke-width="1"/><line x1="896" y1="560" x2="896" y2="567" stroke="#262d3a" stroke-width="1"/><line x1="912" y1="560" x2="912" y2="563.5" stroke="#262d3a" stroke-width="1"/><line x1="928" y1="560" x2="928" y2="563.5" stroke="#262d3a" stroke-width="1"/><line x1="944" y1="560" x2="944" y2="563.5" stroke="#262d3a" stroke-width="1"/><line x1="960" y1="560" x2="960" y2="567" stroke="#262d3a" stroke-width="1"/><line x1="976" y1="560" x2="976" y2="563.5" stroke="#262d3a" stroke-width="1"/><line x1="992" y1="560" x2="992" y2="563.5" stroke="#262d3a" stroke-width="1"/><line x1="1008" y1="560" x2="1008" y2="563.5" stroke="#262d3a" stroke-width="1"/><line x1="1024" y1="560" x2="1024" y2="567" stroke="#262d3a" stroke-width="1"/><line x1="1040" y1="560" x2="1040" y2="563.5" stroke="#262d3a" stroke-width="1"/><line x1="1056" y1="560" x2="1056" y2="563.5" stroke="#262d3a" stroke-width="1"/></g></svg>